HIERARCHY
ROOT Hips
{
  OFFSET 1.44925e-005 102.336 -0.101585
  CHANNELS 6 Xposition Yposition Zposition Zrotation Xrotation Yrotation
  JOINT LeftUpLeg
  {
    OFFSET 8.9458 -8.66707 0.101652
    CHANNELS 3 Zrotation Xrotation Yrotation
    JOINT LeftLeg
    {
      OFFSET 0 -44.4227 1.3727
      CHANNELS 3 Zrotation Xrotation Yrotation
      JOINT LeftFoot
      {
        OFFSET -0.253549 -42.0924 -1.46059
        CHANNELS 3 Zrotation Xrotation Yrotation
        JOINT LeftToes
        {
          OFFSET -0.04 -4.41509 8.4991
          CHANNELS 3 Zrotation Xrotation Yrotation
          End Site
          {
            OFFSET 0.08 -0.047448 9.77979
          }
        }
      }
    }
  }
  JOINT Spine
  {
    OFFSET 0 11.8905 0
    CHANNELS 3 Zrotation Xrotation Yrotation
    JOINT Spine1
    {
      OFFSET 0 25.6574 0.127663
      CHANNELS 3 Zrotation Xrotation Yrotation
      JOINT RightShoulder
      {
        OFFSET -8.99 -0.362252 -0.22
        CHANNELS 3 Zrotation Xrotation Yrotation
        JOINT RightArm
        {
          OFFSET -10.2827 -0.00338 0.322123
          CHANNELS 3 Zrotation Xrotation Yrotation
          JOINT RightForeArm
          {
            OFFSET -26.364 0.099144 -1.42434
            CHANNELS 3 Zrotation Xrotation Yrotation
            JOINT RightHand
            {
              OFFSET -22.0324 0.085362 1.02216
              CHANNELS 3 Zrotation Xrotation Yrotation
              End Site
              {
                OFFSET -13.3284 -0.6 1.50291
              }
            }
          }
        }
      }
      JOINT LeftShoulder1
      {
        OFFSET 8.99 -0.362252 -0.22
        CHANNELS 3 Zrotation Xrotation Yrotation
        JOINT LeftArm
        {
          OFFSET 10.2827 -0.00337999 0.322123
          CHANNELS 3 Zrotation Xrotation Yrotation
          JOINT LeftForeArm
          {
            OFFSET 26.2597 0.099144 -1.42434
            CHANNELS 3 Zrotation Xrotation Yrotation
            JOINT LeftHand
            {
              OFFSET 22.0902 0.085362 1.02216
              CHANNELS 3 Zrotation Xrotation Yrotation
              End Site
              {
                OFFSET 13.419 -0.6 1.50291
              }
            }
          }
        }
      }
      JOINT Head
      {
        OFFSET 0 8.73416 0.011341
        CHANNELS 3 Zrotation Xrotation Yrotation
        End Site
        {
          OFFSET -0.29 12.7742 2.51395
        }
      }
    }
  }
  JOINT RightUpLeg
  {
    OFFSET -8.9458 -8.66707 0.101652
    CHANNELS 3 Zrotation Xrotation Yrotation
    JOINT RightLeg
    {
      OFFSET 0 -44.4227 1.3727
      CHANNELS 3 Zrotation Xrotation Yrotation
      JOINT RightFoot
      {
        OFFSET 0.253549 -42.0924 -1.46059
        CHANNELS 3 Zrotation Xrotation Yrotation
        JOINT RightToes
        {
          OFFSET 0.04 -4.41509 8.4991
          CHANNELS 3 Zrotation Xrotation Yrotation
          End Site
          {
            OFFSET -0.08 -0.137448 9.77979
          }
        }
      }
    }
  }
}
MOTION
Frames:	14
Frame Time:	0.0333333
59.6105 98.7398 4.26006 -8.02952 4.0598 -89.976 3.97644 -35.1518 1.12506 176.569 76.6196 -161.045 -8.2796 -8.85255 -0.0490018 -1.36077e-009 8.75213e-006 -1.47031e-008 19.6746 14.9667 2.09328 -11.677 -3.68544 7.12067 18.4218 0.875643 -0.872834 56.7156 -20.617 90.6671 8.3631 43.0805 0.7114 -16.6435 8.70961 3.26086 -41.0848 3.19916 -3.23631 -12.5286 -12.0874 37.422 -14.8476 53.5429 0.347011 5.82328 9.61819 -0.917488 0.823866 -6.42808 -15.239 5.8015 -5.89715 -4.99174 3.62232 25.2064 -19.4963 -0.0598637 -17.136 -0.240741 0.0462048 0.000530889 0.662642 
57.1115 99.1039 3.97091 -8.76004 3.34021 -90.3858 2.74376 -38.9055 0.79873 176.863 74.9142 -160.586 -8.14801 -10.7433 -0.173816 -1.36077e-009 8.75213e-006 -1.47031e-008 19.1525 15.1404 2.78437 -12.0179 -3.06611 7.82974 16.3183 0.68174 -1.49019 56.4662 -21.8777 94.5665 7.87994 42.5067 0.882649 -16.0904 8.74898 3.27874 -39.8192 3.07512 -3.16441 -7.98605 -13.244 44.69 -14.0251 50.8554 0.707528 5.82328 9.61819 -0.917488 0.464328 -5.89896 -15.9957 5.02815 -2.92991 -5.9805 3.49703 24.2931 -18.0672 0.19635 -17.8691 -0.222434 0.0462048 0.000530889 0.662642 
54.6633 99.3972 3.74429 -9.41733 2.70231 -91.1158 2.0214 -41.7304 0.859969 176.713 75.2763 -159.858 -8.56806 -13.0105 -0.344124 -1.36077e-009 8.75213e-006 -1.47031e-008 18.328 15.2473 3.35029 -12.0287 -2.4083 8.2885 14.8607 0.511963 -2.14605 56.3106 -22.2739 97.9601 7.91623 42.0824 0.263085 -15.4951 8.83352 2.97027 -39.342 3.02831 -3.13532 -6.40176 -11.938 49.6793 -13.7693 50.9008 0.798963 5.82328 9.61819 -0.917488 0.165853 -5.49258 -16.0051 4.36603 -0.202444 -6.58543 3.2022 23.6211 -16.4241 0.638066 -18.8255 -0.182463 0.0462048 0.000530889 0.662642 
52.2498 99.5625 3.53987 -10.0026 2.04089 -91.5776 1.21218 -43.6643 0.647892 176.011 77.6352 -158.433 -9.02746 -14.5922 -0.483471 -1.36077e-009 8.75213e-006 -1.47031e-008 17.1 15.2945 3.61878 -11.5858 -1.87498 8.2988 13.9617 0.389999 -2.67656 56.1289 -22.0812 100.336 8.09381 41.7243 -0.27571 -14.9746 8.89417 2.78645 -39.0127 2.9981 -3.11942 -6.65418 -10.57 52.9465 -13.5776 51.307 0.361146 5.82328 9.61819 -0.917488 -0.0439978 -5.44034 -15.5927 3.66215 2.37839 -7.17738 2.93821 23.0696 -15.0285 1.37091 -19.8738 -0.104071 0.0462048 0.000530889 0.662642 
49.8843 99.6997 3.34169 -10.3708 1.49502 -91.7256 0.303369 -44.7024 0.0636261 173.719 81.982 -155.598 -9.1219 -15.5579 -0.563013 -1.36077e-009 8.75213e-006 -1.47031e-008 15.7843 15.1067 3.76831 -10.8618 -1.42634 8.07186 13.2199 0.314961 -3.0204 55.9087 -21.709 101.357 8.20669 41.7839 -0.413371 -14.2434 8.93749 2.86489 -38.7153 2.97252 -3.10858 -7.00563 -10.4985 54.6287 -13.0555 50.4557 -0.197137 5.82328 9.61819 -0.917488 -0.305871 -5.47181 -15.2611 3.11435 4.79932 -7.67305 2.80818 22.2202 -14.2542 1.78816 -20.517 -0.05233 0.0462048 0.000530889 0.662642 
47.5727 99.8194 3.17747 -10.3785 1.10821 -91.8767 -0.288109 -44.9824 -0.373365 154.613 87.9704 -136.771 -9.18685 -16.4519 -0.636644 -1.36077e-009 8.75213e-006 -1.47031e-008 14.6358 14.7355 3.89287 -10.1641 -1.2432 7.77193 12.5345 0.279421 -3.18574 55.8277 -21.0359 101.107 8.26813 42.3844 -0.260637 -13.6326 8.97417 2.93128 -38.7888 2.97656 -3.10621 -7.24759 -11.4901 54.5439 -12.698 49.6621 -0.271219 5.82328 9.61819 -0.917488 -0.605406 -5.27395 -14.9674 2.79955 6.8426 -7.87913 2.66987 21.1854 -13.841 1.95305 -21.095 -0.0263876 0.0462048 0.000530889 0.662642 
45.2834 99.8246 3.08178 -10.1131 0.822463 -92.0414 -0.556614 -44.4338 -0.461838 8.14474 84.0721 8.95503 -9.48075 -17.1129 -0.712264 -1.36077e-009 8.75213e-006 -1.47031e-008 13.86 14.3532 3.83986 -9.91116 -1.3827 7.3805 12.3891 0.290165 -3.12933 55.9306 -20.0042 99.738 8.34501 43.0938 0.0394651 -13.8613 8.96783 2.84046 -39.1904 3.00849 -3.11503 -8.06777 -12.8379 52.5365 -12.6747 49.7728 -0.110047 5.82328 9.61819 -0.917488 -0.718557 -4.98804 -14.5047 2.57454 8.52137 -7.92022 2.50824 20.2815 -13.4499 2.47707 -21.9462 0.0505526 0.0462048 0.000530889 0.662642 
43.0267 99.7503 3.05791 -9.69 0.728739 -92.2578 -0.455506 -42.7515 -0.136231 3.11203 74.6782 13.6604 -9.68838 -17.1165 -0.730091 -1.36077e-009 8.75213e-006 -1.47031e-008 13.6804 13.9138 3.64573 -10.3313 -1.57227 7.03491 12.931 0.352763 -2.82553 56.3013 -18.8445 97.1509 8.44541 43.5776 0.348532 -14.7448 8.90657 2.81848 -39.6465 3.04959 -3.13515 -9.30301 -14.493 48.7352 -12.7895 49.7127 0.0634758 5.82328 9.61819 -0.917488 -0.577416 -4.76927 -13.9322 2.47388 10.0097 -7.87191 2.41311 19.3606 -13.0658 3.07524 -22.5188 0.139236 0.0462048 0.000530889 0.662642 
40.7782 99.6864 3.08337 -9.06513 0.894712 -92.704 0.111208 -40.041 0.646613 1.88642 63.6632 15.1898 -9.41169 -16.2335 -0.637619 -1.36077e-009 8.75213e-006 -1.47031e-008 13.8158 13.2268 3.50918 -10.9172 -1.73698 6.81002 13.6187 0.454404 -2.35084 57.2503 -17.4916 93.182 8.62606 43.9672 0.43926 -15.2707 8.85786 2.90746 -40.2246 3.10562 -3.16805 -10.793 -16.5875 43.4997 -13.0653 48.9388 0.543805 5.82328 9.61819 -0.917488 -0.372417 -4.28301 -13.1925 2.58102 11.3579 -7.64466 2.33627 18.1761 -12.7118 3.21026 -22.6619 0.16055 0.0462048 0.000530889 0.662642 
38.3899 99.506 3.16145 -8.31014 1.15447 -93.1409 0.630818 -36.8507 1.40621 1.41791 52.4156 16.6407 -8.77135 -14.8199 -0.484679 -1.36077e-009 8.75213e-006 -1.47031e-008 13.7031 12.3137 3.30728 -10.9572 -2.10302 6.38895 14.5898 0.600053 -1.72281 58.2925 -15.9449 87.9214 9.19192 44.2735 0.0697191 -15.1044 8.89529 2.69991 -41.03 3.19021 -3.22559 -13.1894 -18.4635 36.954 -13.856 49.1225 1.4883 5.82328 9.61819 -0.917488 -0.231198 -3.23339 -12.0597 2.72511 12.6147 -7.40536 2.24177 17.1333 -12.2791 3.64083 -23.2974 0.237466 0.0462048 0.000530889 0.662642 
35.7724 99.0381 3.34547 -7.80463 1.44743 -93.3192 0.788212 -33.2631 1.93306 1.26784 42.7169 18.9712 -8.26759 -13.9199 -0.390488 -1.36077e-009 8.75213e-006 -1.47031e-008 13.5431 11.3866 2.83697 -10.7172 -2.41086 5.69024 17.1084 0.84283 -0.883532 57.8828 -14.8692 81.4928 10.4395 44.3695 -0.889077 -14.9113 8.98083 2.10917 -41.8175 3.28165 -3.29734 -16.9326 -18.8728 28.6415 -15.6499 51.7286 2.96367 5.82328 9.61819 -0.917488 -0.111893 -2.04258 -10.6965 2.75171 13.9744 -7.43151 2.19709 16.9267 -11.5954 5.0742 -24.6895 0.495845 0.0462048 0.000530889 0.662642 
32.9691 98.4021 3.67448 -7.79551 1.94412 -93.8476 1.15631 -28.74 3.35095 1.2734 35.0149 22.1642 -7.75692 -13.6301 -0.342926 -1.36077e-009 8.75213e-006 -1.47031e-008 13.8747 10.4738 2.41489 -10.9098 -1.90911 5.28262 21.5073 1.19203 -0.0114042 55.7864 -14.7512 73.9022 12.1984 44.6915 -2.50356 -14.8041 9.05238 1.5704 -42.3637 3.34714 -3.3493 -21.4733 -16.8625 18.3613 -18.4849 55.2282 5.07064 5.82328 9.61819 -0.917488 -0.0456678 -1.28665 -9.43591 2.67935 15.573 -7.67881 1.99493 17.5833 -10.2741 6.4495 -25.9105 0.771597 0.0462048 0.000530889 0.662642 
29.9632 97.8248 4.10029 -8.04372 2.3904 -95.2353 1.6638 -23.5767 6.48625 1.30052 29.0503 24.5969 -6.0236 -12.3974 -0.198398 -1.36077e-009 8.75213e-006 -1.47031e-008 13.7845 9.38102 2.39022 -10.8958 -0.619811 5.27599 26.0881 1.51808 0.532824 54.0671 -15.408 65.4335 14.2174 45.8845 -5.10421 -13.9285 9.16076 1.07256 -42.7213 3.39431 -3.39111 -25.4804 -12.9155 7.38147 -21.0045 56.6781 6.80044 5.82328 9.61819 -0.917488 -0.218963 -0.778266 -8.02794 2.29391 17.1992 -8.0676 1.10309 18.7871 -7.97354 7.31134 -26.7836 0.97122 0.0462048 0.000530889 0.662642 
26.7634 97.3727 4.52346 -8.28453 1.89697 -96.2957 0.909535 -19.5766 9.3883 1.2624 25.7371 25.0184 -2.36522 -9.71991 -0.00566308 -1.36077e-009 8.75213e-006 -1.47031e-008 11.1893 8.20495 2.30355 -9.01364 0.424464 4.63217 29.3244 1.70019 0.686091 53.7265 -16.7978 55.9232 16.6453 47.8071 -9.03693 -12.4 9.33553 0.181259 -42.8416 3.43317 -3.45163 -28.2225 -9.9188 -2.93054 -22.1357 56.0584 7.50329 5.82328 9.61819 -0.917488 -0.66893 -0.145918 -6.09698 1.11626 18.2788 -7.79778 -0.227168 21.0964 -6.16593 9.87295 -27.7091 1.50441 0.0462048 0.000530889 0.662642 
